<svg version="1.1" id="Layer_1" xmlns="http://www.w3.org/2000/svg" xmlns:xlink="http://www.w3.org/1999/xlink" x="0px" y="0px" width="100%" viewBox="0 0 500 500" enable-background="new 0 0 500 500" xml:space="preserve">

<path fill="#FDFEFE" opacity="1.000000" stroke="none" d="
M321.000000,319.999146 
	C286.502319,319.997192 252.504593,319.972046 218.506943,320.006531 
	C207.447281,320.017761 196.758469,319.835083 186.021820,325.057587 
	C170.357468,332.676941 153.132507,334.975281 135.582443,334.042053 
	C127.155128,333.593933 120.256203,329.344025 120.137611,323.055756 
	C120.024117,317.038055 119.937012,310.658386 121.733459,305.044189 
	C125.090210,294.553802 129.748260,284.472961 133.997238,274.276886 
	C138.237274,264.102264 143.573761,254.669998 152.092728,247.290634 
	C154.928619,244.834091 157.443222,241.869232 159.536255,238.754745 
	C160.479996,237.350418 160.031158,235.010254 159.567459,232.932327 
	C146.322250,244.482254 137.799316,259.410461 126.627174,272.506256 
	C127.938889,269.308441 129.174530,266.076874 130.575089,262.918427 
	C137.766769,246.700348 147.852356,232.331833 158.847763,218.523010 
	C160.038086,217.028137 160.894241,214.802673 160.909210,212.908234 
	C161.059204,193.910706 161.083633,174.911026 160.969330,155.913010 
	C160.901520,144.643661 165.641190,139.953964 176.667908,139.977173 
	C209.498871,140.046249 242.330063,140.000809 275.161163,140.000259 
	C288.561554,140.000046 301.961945,140.000244 315.362335,140.000244 
	C315.584015,139.256195 315.805725,138.512146 316.027405,137.768097 
	C313.161499,136.136993 310.295593,134.505905 306.788177,132.509674 
	C309.483490,131.520554 312.331116,130.641846 315.040405,129.448990 
	C322.143829,126.321518 329.030060,127.017639 335.256561,131.243805 
	C337.167816,132.541016 337.697357,135.775177 339.078033,137.985947 
	C340.078613,139.588043 341.439301,140.965271 342.821228,142.666626 
	C348.692200,132.977951 338.143341,121.850250 329.497223,121.861534 
	C316.811371,121.878098 306.222382,127.443306 295.509460,133.010803 
	C294.256622,133.661911 293.063141,134.427277 291.842163,135.139679 
	C291.521179,134.747070 291.200226,134.354446 290.879242,133.961838 
	C297.253082,128.308533 303.388428,122.354736 310.052063,117.066620 
	C322.605408,107.104538 337.085663,100.993126 352.695282,97.787903 
	C378.883636,92.410484 394.571503,109.267136 391.212372,134.534195 
	C388.527985,154.725830 379.135010,171.982361 368.555084,188.804077 
	C368.453247,188.965927 367.960968,188.882172 367.155792,188.962463 
	C376.708984,165.559006 379.566071,142.855865 360.001129,122.496819 
	C360.333252,124.324226 360.870728,126.141098 360.965057,127.980698 
	C361.732269,142.939392 361.082153,157.740448 355.537201,171.920197 
	C354.077576,175.652832 352.323090,179.280014 351.045135,183.070633 
	C350.081360,185.929459 349.113464,188.967056 349.088226,191.933060 
	C348.918182,211.930267 348.999756,231.929596 348.998016,251.928238 
	C348.997894,253.261002 349.547821,255.081177 348.885162,255.849640 
	C343.451660,262.150757 348.436523,266.881134 351.325378,271.619598 
	C357.191772,281.242035 363.687653,290.483673 369.452637,300.163025 
	C370.887939,302.572906 371.429718,306.269165 370.777405,308.989319 
	C369.827240,312.951630 365.991333,313.051361 362.303497,313.045441 
	C312.973633,312.965973 263.643646,312.993927 214.313660,313.007446 
	C213.021576,313.007812 211.729538,313.146912 210.450134,314.127014 
	C261.916016,314.127014 313.381897,314.127014 364.847809,314.127014 
	C364.979248,314.755585 365.110687,315.384186 365.242157,316.012756 
	C360.493103,317.341614 355.796356,319.525482 350.984009,319.819946 
	C341.189026,320.419312 331.331665,319.999176 321.000000,319.999146 
M316.977966,158.250137 
	C317.613129,155.281860 318.248322,152.313599 318.743225,150.000916 
	C306.573181,150.000916 294.360107,150.000977 282.147034,150.000900 
	C248.000549,150.000717 213.854065,149.998688 179.707581,150.001694 
	C172.638367,150.002319 169.848709,152.768784 170.011597,159.757401 
	C170.178253,166.906479 170.496078,174.052017 170.660812,181.201111 
	C170.826660,188.398361 171.060410,195.600693 170.953690,202.796173 
	C170.753632,216.285767 170.036209,229.774170 170.134140,243.258682 
	C170.176895,249.142334 172.192566,253.040359 180.446915,253.021713 
	C205.432022,252.965347 230.417908,253.073257 255.401627,252.879364 
	C257.696655,252.861557 260.678986,251.764496 262.143158,250.108475 
	C267.957245,243.532684 273.421783,236.633484 278.785980,229.676895 
	C295.325378,208.227768 307.789886,184.579132 316.977966,158.250137 
M253.506332,281.993164 
	C246.078659,288.191833 238.650986,294.390503 230.796585,300.945312 
	C234.840210,301.327637 238.400131,301.938324 241.962906,301.955566 
	C261.585297,302.050446 281.208374,302.000214 300.831207,301.999939 
	C316.332642,301.999695 331.834076,302.004547 347.335510,301.996613 
	C351.735931,301.994354 353.547211,298.199768 350.958923,293.903931 
	C345.980804,285.641724 340.921967,277.423096 335.669128,269.334106 
	C333.752594,266.382843 331.099731,264.722778 327.006775,264.874054 
	C316.698090,265.255096 306.364685,264.916168 296.043945,265.061493 
	C293.593719,265.095978 291.154327,265.898682 289.249786,266.248779 
	C288.166931,265.786987 287.252686,265.078308 286.320374,265.053619 
	C281.828125,264.934845 277.330505,264.967010 272.835968,265.028961 
	C271.939789,265.041290 270.769897,265.125610 270.198517,265.671326 
	C264.743622,270.880951 259.390442,276.197113 253.506332,281.993164 
M212.957581,296.558411 
	C224.715714,286.432373 236.473831,276.306305 248.438126,266.002716 
	C224.291580,266.002716 201.072281,265.977692 177.853683,266.091644 
	C176.896637,266.096313 175.631042,267.204895 175.041489,268.136169 
	C169.628586,276.686829 164.240509,285.256256 159.036819,293.935089 
	C155.606567,299.656128 157.093155,301.996490 163.838867,301.999542 
	C174.148880,302.004242 184.469269,301.720062 194.765167,302.101288 
	C201.345688,302.344879 207.398682,301.849762 212.957581,296.558411 
M338.971039,173.213837 
	C338.971039,166.994873 338.971039,160.775894 338.971039,154.556931 
	C326.799469,190.872375 307.818146,222.797256 283.213104,252.285995 
	C288.199463,252.987259 293.136383,253.601822 297.777832,252.698395 
	C299.759491,252.312698 301.239288,248.836929 302.737885,246.623596 
	C304.262848,244.371246 305.443512,241.888336 306.924194,239.603088 
	C320.239960,219.051895 331.077148,197.310974 338.971039,173.213837 
M316.002930,237.494980 
	C312.107971,242.256561 308.213013,247.018143 304.392273,251.688965 
	C305.163391,252.131042 305.852386,252.866531 306.548859,252.873688 
	C315.356049,252.964279 324.195496,253.353134 332.950104,252.675842 
	C335.109253,252.508804 338.504486,248.942032 338.739410,246.670135 
	C339.701752,237.362747 339.814911,227.953430 339.919922,218.578064 
	C339.965454,214.512909 339.234375,210.439041 338.865997,206.476654 
	C331.357147,216.729706 323.939880,226.857651 316.002930,237.494980 
M141.031433,277.712860 
	C139.159027,284.169891 136.971756,290.556549 135.508682,297.105011 
	C134.217087,302.886078 133.142075,309.002106 136.345535,314.502228 
	C137.476166,316.443420 139.893005,318.281860 142.056808,318.817780 
	C145.023087,319.552460 148.307785,319.001495 152.183609,319.001495 
	C149.180679,317.453705 146.989777,316.324432 144.798859,315.195190 
	C144.946762,314.745483 145.094666,314.295807 145.242569,313.846130 
	C158.243927,313.846130 171.245285,313.846130 184.246643,313.846130 
	C171.759476,313.000549 159.283676,313.142578 146.816589,312.876160 
	C144.431305,312.825195 140.606934,311.695068 140.043350,310.128540 
	C139.089966,307.478485 139.223831,303.511871 140.624054,301.098846 
	C147.082504,289.968964 154.115341,279.171265 160.988770,268.283844 
	C163.187317,264.801392 164.400360,261.572266 162.171310,257.338226 
	C160.904419,254.931808 161.262177,251.637711 161.027649,248.732117 
	C160.883041,246.940598 161.000854,245.127899 161.000854,243.324707 
	C160.353745,243.161285 159.706635,242.997879 159.059525,242.834457 
	C153.190765,254.234146 147.322021,265.633820 141.031433,277.712860 
z" data-index="1" style="opacity: 1;"></path>
<path fill="#8EF1FD" opacity="1.000000" stroke="none" d="
M136.059998,355.030823 
	C136.034134,363.492615 136.153214,371.960022 135.823517,380.409973 
	C135.775024,381.653229 133.743332,383.594299 132.374863,383.849762 
	C129.508438,384.384827 126.472542,384.012024 123.101929,384.012024 
	C123.101929,379.336090 123.101929,374.954865 123.101929,370.080933 
	C118.327217,374.076141 118.867805,383.979126 109.556229,380.645782 
	C107.598373,377.595154 105.634598,374.535309 102.994003,370.420898 
	C102.994003,374.763062 103.167519,377.989777 102.901237,381.179718 
	C102.806198,382.318237 101.704117,384.254059 100.961861,384.302734 
	C97.943802,384.500549 94.766693,384.526001 91.909569,383.705261 
	C90.906075,383.416992 90.198318,380.533112 90.138680,378.807312 
	C89.926315,372.662689 90.050285,366.506378 90.048393,360.354492 
	C90.047066,356.054626 90.048134,351.754761 90.048134,347.480560 
	C98.853722,346.128876 101.928764,347.619904 106.020126,354.695801 
	C108.081833,358.261414 110.477768,361.633820 113.265823,365.930908 
	C115.323082,362.121460 117.028206,358.964050 119.199249,355.383850 
	C121.746490,352.362457 123.827805,349.763855 125.909126,347.165253 
	C128.345078,347.109283 130.781036,347.053314 133.610229,347.475433 
	C134.688980,350.312622 135.374481,352.671722 136.059998,355.030823 
z" data-index="2" style="opacity: 1;"></path>
<path fill="#8DF0FC" opacity="1.000000" stroke="none" d="
M212.183777,364.019623 
	C212.183777,358.864014 212.183777,353.708405 212.183777,348.774902 
	C225.142441,343.515289 228.706528,355.321320 235.863922,362.440674 
	C235.863922,357.215637 235.863922,352.857086 235.863922,348.257141 
	C240.393295,348.257141 244.457504,348.257141 248.976883,348.257141 
	C248.976883,356.668091 248.830338,364.955048 249.099457,373.228485 
	C249.153854,374.900665 250.781021,376.521667 251.700592,378.840881 
	C251.116714,381.036377 250.515350,382.557312 249.913986,384.078217 
	C238.977921,386.769165 233.465546,379.523468 227.997559,372.153076 
	C227.500763,371.483429 226.749329,371.002716 225.753693,370.926086 
	C225.282883,371.979736 225.174500,372.541534 225.066132,373.103302 
	C225.066132,373.103302 225.054321,373.021729 224.773071,373.279785 
	C224.328003,375.135193 224.020645,376.732941 224.025436,378.329773 
	C224.045364,384.954102 218.373520,380.475433 216.043747,382.476288 
	C215.016556,381.275055 213.989349,380.073853 212.962158,378.872620 
	C212.962158,378.872620 213.001038,378.409576 213.332993,377.896210 
	C213.501724,374.594086 213.338486,371.805328 213.175262,369.016571 
	C213.175262,369.016571 213.015747,368.587860 213.005829,367.994385 
	C212.725204,366.273834 212.454498,365.146729 212.183777,364.019623 
z" data-index="3" style="opacity: 1;"></path>
<path fill="#8CF2FD" opacity="1.000000" stroke="none" d="
M199.143661,348.962372 
	C199.143661,348.962372 199.586929,349.001007 199.932663,349.275940 
	C200.520660,349.775696 200.804993,349.914032 201.131378,349.965912 
	C210.829956,353.367004 211.913605,364.300781 203.290695,373.341003 
	C205.010803,376.540100 206.770264,379.812378 208.778702,383.547729 
	C200.767090,384.616943 194.072357,384.995605 190.799057,376.598358 
	C190.544128,375.944336 189.058029,375.770233 187.730133,375.937927 
	C186.026718,383.691711 180.362976,381.710327 175.048309,382.408020 
	C175.048309,378.606018 174.948700,375.192108 175.069901,371.786041 
	C175.293274,365.509308 175.700272,359.238586 175.863922,352.960999 
	C175.880737,352.315796 174.766373,351.641113 174.176910,350.980072 
	C174.125122,350.547180 174.073334,350.114319 174.548523,349.349518 
	C183.098206,348.999176 191.120926,348.980774 199.143661,348.962372 
M187.052551,363.292603 
	C189.728638,363.658691 192.400909,364.112396 195.087845,364.229218 
	C195.309784,364.238861 196.239029,361.266998 195.794357,360.879272 
	C194.346954,359.617279 192.502441,358.446716 190.648727,358.095093 
	C187.389175,357.476807 187.264252,360.168274 187.052551,363.292603 
z" data-index="4" style="opacity: 1;"></path>
<path fill="#8BF1FE" opacity="1.000000" stroke="none" d="
M156.129669,347.970154 
	C156.129669,347.970154 156.583511,348.003052 157.114365,348.341370 
	C160.128723,348.788544 162.625214,349.106812 165.092453,348.953644 
	C168.230255,348.758911 169.138702,350.075775 169.050461,353.049713 
	C168.960342,356.086853 167.077362,355.815491 165.010269,356.052124 
	C161.319519,356.474518 157.666122,357.223389 153.997116,357.835754 
	C154.264008,358.895935 154.385666,360.809692 154.820358,360.883636 
	C158.967575,361.589233 163.167816,361.983246 167.996201,362.541077 
	C167.996201,363.949036 167.897476,365.700256 168.018127,367.436218 
	C168.226410,370.432617 166.568176,371.073395 164.019333,371.004730 
	C160.540237,370.911041 157.056732,370.981384 153.383408,370.981384 
	C152.679932,373.554016 152.584625,375.291779 155.975739,375.020447 
	C160.030914,374.695984 164.098633,374.413361 168.161987,374.398224 
	C169.026474,374.394989 169.895569,375.622101 170.541183,376.960358 
	C170.070312,379.245636 169.820801,380.852966 169.501236,382.911499 
	C161.411880,382.911499 153.455475,383.036987 145.506332,382.851379 
	C142.201538,382.774200 140.798172,380.905334 140.908585,377.281219 
	C141.166153,368.826782 140.937668,360.357544 140.920471,351.533203 
	C140.951950,350.447052 140.969055,349.721985 141.409790,349.000244 
	C143.880524,348.617035 145.927612,348.230469 147.974701,347.843872 
	C147.974701,347.843872 147.974396,347.940491 148.313553,347.962524 
	C149.427734,347.999298 150.202774,348.014008 151.171295,348.269562 
	C152.249908,348.346680 153.134995,348.182983 154.371704,348.016052 
	C155.192093,347.998566 155.660889,347.984375 156.129669,347.970154 
z" data-index="5" style="opacity: 1;"></path>
<path fill="#FDFEFE" opacity="1.000000" stroke="none" d="
M367.005371,350.218475 
	C369.802307,348.929749 372.599030,348.121490 376.007050,347.136536 
	C376.007050,352.797668 376.007050,357.214203 376.007050,361.801331 
	C381.137207,361.801331 385.871857,361.801331 391.001831,361.801331 
	C391.001831,357.205444 391.001831,352.788818 391.001831,348.196655 
	C394.131012,348.196655 396.864929,348.196655 399.532562,348.196655 
	C399.532562,360.381927 399.532562,372.372620 399.532562,384.381409 
	C396.556671,384.183197 394.047241,384.016022 391.177643,383.824890 
	C391.177643,379.472382 391.177643,375.040314 391.177643,370.305359 
	C386.093567,370.305359 381.357300,370.305359 376.196289,370.305359 
	C376.196289,374.903137 376.196289,379.648529 376.196289,384.280670 
	C373.071381,384.135345 370.362579,384.009369 367.005157,383.853241 
	C367.005157,372.857056 367.005157,361.778015 367.005371,350.218475 
z" data-index="6" style="opacity: 1;"></path>
<path fill="#FDFEFE" opacity="1.000000" stroke="none" d="
M318.357544,348.429932 
	C322.328857,348.360291 325.994812,348.652435 329.774750,348.953674 
	C329.254730,351.471191 328.454895,354.516022 328.030182,357.612305 
	C327.519897,361.332367 326.828796,365.131836 327.092316,368.834534 
	C327.931274,380.623535 317.973358,386.903046 306.716949,384.798157 
	C298.198700,383.205322 294.031189,377.469238 294.004120,368.602966 
	C293.983826,361.954681 294.000122,355.306305 294.000122,348.329590 
	C296.875214,348.329590 299.613831,348.329590 302.999359,348.329590 
	C302.999359,354.699310 302.924286,361.293030 303.021759,367.884186 
	C303.108734,373.765808 305.924133,376.937225 310.846863,377.000092 
	C315.429352,377.058594 317.889832,374.864288 317.970917,370.272736 
	C318.097290,363.114166 318.034698,355.952240 318.357544,348.429932 
z" data-index="7" style="opacity: 1;"></path>
<path fill="#FBFEFE" opacity="1.000000" stroke="none" d="
M250.109344,384.406189 
	C250.515350,382.557312 251.116714,381.036377 251.865189,379.194031 
	C255.672791,371.166046 259.357452,363.470825 262.979797,355.746429 
	C264.137146,353.278442 265.129364,350.733002 266.181274,348.260376 
	C275.243256,347.543518 275.284668,347.524902 278.960419,355.698608 
	C283.080933,364.861328 287.116577,374.062195 291.221924,383.320343 
	C282.471588,385.045441 282.471588,385.045441 278.678131,377.184509 
	C273.499603,377.184509 268.225739,377.184509 263.011688,377.184509 
	C261.903290,379.331451 260.746826,381.571503 259.681519,383.634979 
	C256.467773,384.011719 253.386246,384.372955 250.109344,384.406189 
M274.610321,366.088531 
	C273.337891,364.050232 272.065430,362.011932 270.242310,359.091522 
	C268.516724,363.353455 267.249939,366.482239 265.902405,369.810425 
	C269.470673,369.810425 272.514160,369.810425 275.494232,369.810425 
	C275.300323,368.686157 275.136902,367.738647 274.610321,366.088531 
z" data-index="8" style="opacity: 1;"></path>
<path fill="#FCFEFE" opacity="1.000000" stroke="none" d="
M360.754517,348.004181 
	C362.009125,350.088379 362.786133,352.169098 363.817749,354.931580 
	C358.829254,354.931580 355.045837,354.931580 351.249298,354.931580 
	C351.249298,364.702148 351.249298,374.146912 351.249298,383.795410 
	C347.878082,383.795410 345.142761,383.795410 342.011353,383.795410 
	C342.011353,374.212341 342.011353,364.795685 342.011353,355.309113 
	C337.970184,355.309113 334.316223,355.309113 330.248474,355.309113 
	C330.609009,352.844055 330.940063,350.580566 331.317352,348.000732 
	C340.992859,348.000732 350.634918,348.000732 360.754517,348.004181 
z" data-index="9"></path>
<path fill="#F6FEFE" opacity="1.000000" stroke="none" d="
M125.512527,347.102722 
	C123.827805,349.763855 121.746490,352.362457 119.332825,355.049438 
	C109.334724,355.850708 107.163643,351.648743 106.880493,342.531830 
	C106.449066,328.640503 108.851440,315.573608 116.320549,303.581238 
	C115.226936,306.958832 113.580826,310.268219 113.153915,313.728088 
	C112.245186,321.092896 111.127068,328.598297 111.670616,335.929260 
	C112.219612,343.333740 118.067345,346.410980 125.512527,347.102722 
z" data-index="10"></path>
<path fill="#A2F3FB" opacity="1.000000" stroke="none" d="
M174.096466,351.444885 
	C174.766373,351.641113 175.880737,352.315796 175.863922,352.960999 
	C175.700272,359.238586 175.293274,365.509308 175.069901,371.786041 
	C174.948700,375.192108 175.048309,378.606018 175.048309,382.408020 
	C180.362976,381.710327 186.026718,383.691711 187.572189,376.264069 
	C187.828278,378.493713 187.828278,380.962128 187.828278,383.723694 
	C183.514557,383.723694 179.117538,383.723694 174.016006,383.723694 
	C174.016006,373.237579 174.016006,362.573639 174.096466,351.444885 
z" data-index="11"></path>
<path fill="#A5F0FA" opacity="1.000000" stroke="none" d="
M140.906067,351.894287 
	C140.937668,360.357544 141.166153,368.826782 140.908585,377.281219 
	C140.798172,380.905334 142.201538,382.774200 145.506332,382.851379 
	C153.455475,383.036987 161.411880,382.911499 169.501236,382.911499 
	C169.820801,380.852966 170.070312,379.245636 170.566788,377.338562 
	C170.813736,379.446899 170.813736,381.854980 170.813736,384.270020 
	C160.339020,384.270020 150.487976,384.270020 140.006424,384.270020 
	C140.006424,375.901031 140.046799,367.981720 139.975143,360.063416 
	C139.959244,358.307953 139.547897,356.556091 139.252197,354.146881 
	C139.759186,352.958923 140.332626,352.426605 140.906067,351.894287 
z" data-index="12" style="opacity: 1;"></path>
<path fill="#9EEFF7" opacity="1.000000" stroke="none" d="
M154.459290,357.909363 
	C157.666122,357.223389 161.319519,356.474518 165.010269,356.052124 
	C167.077362,355.815491 168.960342,356.086853 169.050461,353.049713 
	C169.138702,350.075775 168.230255,348.758911 165.092453,348.953644 
	C162.625214,349.106812 160.128723,348.788544 157.328339,348.418701 
	C161.130905,348.157745 165.250366,348.157745 169.449036,348.157745 
	C169.949738,350.317932 170.972549,352.514008 170.744690,354.571594 
	C170.605957,355.824188 168.625381,357.707764 167.321625,357.841583 
	C163.226562,358.261993 159.060211,357.988037 154.459290,357.909363 
z" data-index="13"></path>
<path fill="#E3FCFE" opacity="1.000000" stroke="none" d="
M140.920471,351.533203 
	C140.332626,352.426605 139.759186,352.958923 139.066620,353.763855 
	C138.186050,354.290436 137.424591,354.544403 136.361557,354.914612 
	C135.374481,352.671722 134.688980,350.312622 133.999146,347.552246 
	C136.039230,347.446503 138.083633,347.742035 140.536804,348.315857 
	C140.945602,348.594177 140.986160,348.996887 140.986160,348.996887 
	C140.969055,349.721985 140.951950,350.447052 140.920471,351.533203 
z" data-index="14"></path>
<path fill="#A0F2FB" opacity="1.000000" stroke="none" d="
M212.617279,379.063904 
	C213.989349,380.073853 215.016556,381.275055 216.043747,382.476288 
	C218.373520,380.475433 224.045364,384.954102 224.025436,378.329773 
	C224.020645,376.732941 224.328003,375.135193 224.814209,373.282349 
	C225.136597,376.486847 225.136597,379.946869 225.136597,383.765167 
	C220.872314,383.956604 216.897186,384.135040 212.272415,384.342651 
	C212.272415,382.658813 212.272415,380.956970 212.617279,379.063904 
z" data-index="15"></path>
<path fill="#A2F3FB" opacity="1.000000" stroke="none" d="
M198.914886,348.581573 
	C191.120926,348.980774 183.098206,348.999176 174.617126,349.028137 
	C175.576828,348.695801 176.992981,348.067902 178.413254,348.058502 
	C185.170273,348.013702 191.928391,348.137177 198.914886,348.581573 
z" data-index="16"></path>
<path fill="#A0F2FB" opacity="1.000000" stroke="none" d="
M213.100342,369.459656 
	C213.338486,371.805328 213.501724,374.594086 213.413879,377.678406 
	C213.117020,375.283569 213.071228,372.593140 213.100342,369.459656 
z" data-index="17"></path>
<path fill="#A5F0FA" opacity="1.000000" stroke="none" d="
M150.977798,348.028748 
	C150.202774,348.014008 149.427734,347.999298 148.266235,347.952789 
	C150.495911,347.693085 153.112045,347.465149 155.928925,347.603699 
	C155.660889,347.984375 155.192093,347.998566 153.991272,348.009338 
	C152.498764,348.013519 151.738281,348.021118 150.977798,348.028748 
z" data-index="18"></path>
<path fill="#A5F0FA" opacity="1.000000" stroke="none" d="
M141.409790,349.000244 
	C140.986160,348.996887 140.945602,348.594177 140.935516,348.392029 
	C142.983292,348.119781 145.041168,348.049713 147.536865,347.911774 
	C145.927612,348.230469 143.880524,348.617035 141.409790,349.000244 
z" data-index="19"></path>
<path fill="#A0F2FB" opacity="1.000000" stroke="none" d="
M212.102844,364.396454 
	C212.454498,365.146729 212.725204,366.273834 212.979980,367.767151 
	C212.649994,367.013367 212.335938,365.893311 212.102844,364.396454 
z" data-index="20"></path>
<path fill="#A0F2FB" opacity="1.000000" stroke="none" d="
M225.363144,372.981445 
	C225.174500,372.541534 225.282883,371.979736 225.606369,371.221191 
	C225.767700,371.636139 225.713928,372.247894 225.363144,372.981445 
z" data-index="21"></path>
<path fill="#A2F3FB" opacity="1.000000" stroke="none" d="
M201.038422,349.708557 
	C200.804993,349.914032 200.520660,349.775696 200.140930,349.354126 
	C200.317490,349.255310 200.631485,349.353271 201.038422,349.708557 
z" data-index="22"></path>
<path fill="#000000" opacity="1.000000" stroke="none" d="
M316.765045,158.607391 
	C307.789886,184.579132 295.325378,208.227768 278.785980,229.676895 
	C273.421783,236.633484 267.957245,243.532684 262.143158,250.108475 
	C260.678986,251.764496 257.696655,252.861557 255.401627,252.879364 
	C230.417908,253.073257 205.432022,252.965347 180.446915,253.021713 
	C172.192566,253.040359 170.176895,249.142334 170.134140,243.258682 
	C170.036209,229.774170 170.753632,216.285767 170.953690,202.796173 
	C171.060410,195.600693 170.826660,188.398361 170.660812,181.201111 
	C170.496078,174.052017 170.178253,166.906479 170.011597,159.757401 
	C169.848709,152.768784 172.638367,150.002319 179.707581,150.001694 
	C213.854065,149.998688 248.000549,150.000717 282.147034,150.000900 
	C294.360107,150.000977 306.573181,150.000916 318.743225,150.000916 
	C318.248322,152.313599 317.613129,155.281860 316.765045,158.607391 
z" data-index="23" style="opacity: 1;"></path>
<path fill="#000000" opacity="1.000000" stroke="none" d="
M253.757202,281.737915 
	C259.390442,276.197113 264.743622,270.880951 270.198517,265.671326 
	C270.769897,265.125610 271.939789,265.041290 272.835968,265.028961 
	C277.330505,264.967010 281.828125,264.934845 286.320374,265.053619 
	C287.252686,265.078308 288.166931,265.786987 289.249786,266.248779 
	C291.154327,265.898682 293.593719,265.095978 296.043945,265.061493 
	C306.364685,264.916168 316.698090,265.255096 327.006775,264.874054 
	C331.099731,264.722778 333.752594,266.382843 335.669128,269.334106 
	C340.921967,277.423096 345.980804,285.641724 350.958923,293.903931 
	C353.547211,298.199768 351.735931,301.994354 347.335510,301.996613 
	C331.834076,302.004547 316.332642,301.999695 300.831207,301.999939 
	C281.208374,302.000214 261.585297,302.050446 241.962906,301.955566 
	C238.400131,301.938324 234.840210,301.327637 230.796585,300.945312 
	C238.650986,294.390503 246.078659,288.191833 253.757202,281.737915 
z" data-index="24" style="opacity: 1;"></path>
<path fill="#000000" opacity="1.000000" stroke="none" d="
M212.648621,296.765564 
	C207.398682,301.849762 201.345688,302.344879 194.765167,302.101288 
	C184.469269,301.720062 174.148880,302.004242 163.838867,301.999542 
	C157.093155,301.996490 155.606567,299.656128 159.036819,293.935089 
	C164.240509,285.256256 169.628586,276.686829 175.041489,268.136169 
	C175.631042,267.204895 176.896637,266.096313 177.853683,266.091644 
	C201.072281,265.977692 224.291580,266.002716 248.438126,266.002716 
	C236.473831,276.306305 224.715714,286.432373 212.648621,296.765564 
z" data-index="25" style="opacity: 1;"></path>
<path fill="#000000" opacity="1.000000" stroke="none" d="
M338.767303,173.583252 
	C331.077148,197.310974 320.239960,219.051895 306.924194,239.603088 
	C305.443512,241.888336 304.262848,244.371246 302.737885,246.623596 
	C301.239288,248.836929 299.759491,252.312698 297.777832,252.698395 
	C293.136383,253.601822 288.199463,252.987259 283.213104,252.285995 
	C307.818146,222.797256 326.799469,190.872375 338.971039,154.556931 
	C338.971039,160.775894 338.971039,166.994873 338.767303,173.583252 
z" data-index="26" style="opacity: 1;"></path>
<path fill="#000000" opacity="1.000000" stroke="none" d="
M316.262787,237.240295 
	C323.939880,226.857651 331.357147,216.729706 338.865997,206.476654 
	C339.234375,210.439041 339.965454,214.512909 339.919922,218.578064 
	C339.814911,227.953430 339.701752,237.362747 338.739410,246.670135 
	C338.504486,248.942032 335.109253,252.508804 332.950104,252.675842 
	C324.195496,253.353134 315.356049,252.964279 306.548859,252.873688 
	C305.852386,252.866531 305.163391,252.131042 304.392273,251.688965 
	C308.213013,247.018143 312.107971,242.256561 316.262787,237.240295 
z" data-index="27" style="opacity: 1;"></path>
<path fill="#000000" opacity="1.000000" stroke="none" d="
M141.242355,277.373169 
	C147.322021,265.633820 153.190765,254.234146 159.059525,242.834457 
	C159.706635,242.997879 160.353745,243.161285 161.000854,243.324707 
	C161.000854,245.127899 160.883041,246.940598 161.027649,248.732117 
	C161.262177,251.637711 160.904419,254.931808 162.171310,257.338226 
	C164.400360,261.572266 163.187317,264.801392 160.988770,268.283844 
	C154.115341,279.171265 147.082504,289.968964 140.624054,301.098846 
	C139.223831,303.511871 139.089966,307.478485 140.043350,310.128540 
	C140.606934,311.695068 144.431305,312.825195 146.816589,312.876160 
	C159.283676,313.142578 171.759476,313.000549 184.246643,313.846130 
	C171.245285,313.846130 158.243927,313.846130 145.242569,313.846130 
	C145.094666,314.295807 144.946762,314.745483 144.798859,315.195190 
	C146.989777,316.324432 149.180679,317.453705 152.183609,319.001495 
	C148.307785,319.001495 145.023087,319.552460 142.056808,318.817780 
	C139.893005,318.281860 137.476166,316.443420 136.345535,314.502228 
	C133.142075,309.002106 134.217087,302.886078 135.508682,297.105011 
	C136.971756,290.556549 139.159027,284.169891 141.242355,277.373169 
z" data-index="28" style="opacity: 1;"></path>
<path fill="#000000" opacity="1.000000" stroke="none" d="
M187.029022,362.868164 
	C187.264252,360.168274 187.389175,357.476807 190.648727,358.095093 
	C192.502441,358.446716 194.346954,359.617279 195.794357,360.879272 
	C196.239029,361.266998 195.309784,364.238861 195.087845,364.229218 
	C192.400909,364.112396 189.728638,363.658691 187.029022,362.868164 
z" data-index="29"></path>
<path fill="#9EEFF7" opacity="1.000000" stroke="none" d="
M151.171295,348.269562 
	C151.738281,348.021118 152.498764,348.013519 153.639679,348.012634 
	C153.134995,348.182983 152.249908,348.346680 151.171295,348.269562 
z" data-index="30"></path>
<path fill="#000000" opacity="1.000000" stroke="none" d="
M274.791870,366.439819 
	C275.136902,367.738647 275.300323,368.686157 275.494232,369.810425 
	C272.514160,369.810425 269.470673,369.810425 265.902405,369.810425 
	C267.249939,366.482239 268.516724,363.353455 270.242310,359.091522 
	C272.065430,362.011932 273.337891,364.050232 274.791870,366.439819 
z" data-index="31"></path>
</svg>